<?xml version="1.0" encoding="utf-8"?>
<!-- Generator: Adobe Illustrator 24.3.0, SVG Export Plug-In . SVG Version: 6.00 Build 0)  -->
<svg version="1.1" id="Layer_1" xmlns="http://www.w3.org/2000/svg" xmlns:xlink="http://www.w3.org/1999/xlink" x="0px" y="0px"
	 viewBox="0 0 300 300" enable-background="new 0 0 300 300" xml:space="preserve">
<g>
	<g>
		<g>
			<path fill="#7FD3B9" d="M271.159,171.174v-42.347h-28.102c-2.413-10.631-6.598-20.584-12.238-29.534l19.874-19.874L220.75,49.475
				l-19.874,19.874c-8.952-5.641-18.903-9.825-29.535-12.238V29.009h-42.347v28.102c-10.631,2.413-20.583,6.597-29.535,12.238
				L79.587,49.475L49.643,79.418l19.874,19.874c-5.64,8.95-9.825,18.903-12.238,29.534H29.177v42.347h28.102
				c2.414,10.631,6.598,20.584,12.238,29.534l-19.874,19.874l29.944,29.944l19.874-19.874c8.952,5.641,18.904,9.825,29.535,12.238
				v28.102h42.347v-28.102c10.631-2.413,20.583-6.597,29.535-12.238l19.874,19.874l29.943-29.944l-19.874-19.874
				c5.64-8.95,9.824-18.903,12.238-29.534H271.159z"/>
		</g>
		<g>
			<path fill="#BBEAD9" d="M149.777,270.991V29.009h-21.116v28.102c-10.634,2.413-20.583,6.597-29.536,12.238L79.251,49.475
				L49.308,79.418l19.874,19.874c-5.642,8.95-9.825,18.903-12.238,29.534h-28.1v42.347h28.1
				c2.413,10.631,6.596,20.584,12.238,29.534l-19.874,19.874l29.943,29.944l19.874-19.874c8.953,5.641,18.902,9.825,29.536,12.238
				v28.102H149.777z"/>
		</g>
		<g>
			<path fill="#FE6F80" d="M207.759,120.687l-22.707-22.706H150.32h-0.304h-34.732l-22.706,22.706c0,0,12.742,84.416,57.257,91.854
				l0,0C194.349,205.103,207.759,120.687,207.759,120.687z"/>
		</g>
		<g>
			<path fill="#FFA1AA" d="M149.777,97.981h-34.496l-22.703,22.706c0,0,12.684,84.416,57.199,91.854
				C149.892,212.522,149.777,97.981,149.777,97.981z"/>
		</g>
		<g>
			<path fill="#F4F4F4" d="M164.48,143.559v-9.144c0-7.891-6.419-14.31-14.31-14.31c-7.891,0-14.312,6.419-14.312,14.31v9.144
				h-2.977v34.578h34.577v-34.578H164.48z M144.932,143.559v-9.144c0-2.887,2.35-5.236,5.237-5.236c2.887,0,5.236,2.348,5.236,5.236
				v9.144H144.932z"/>
		</g>
		<g>
			<path fill="#F9F9F9" d="M149.777,143.559h-4.843v-9.144c0-2.734,2.17-4.958,4.843-5.19v-9.074
				c-7.677,0.244-13.917,6.527-13.917,14.264v9.144h-2.977v34.578h16.895V143.559z"/>
		</g>
		<g>
			<path fill="#FE6F80" d="M154.627,160.909c0,2.464-1.995,4.459-4.459,4.459s-4.459-1.995-4.459-4.459
				c0-2.464,1.995-4.459,4.459-4.459S154.627,158.445,154.627,160.909z"/>
		</g>
	</g>
	<g>
		<g>
			<path fill="#161616" d="M171.173,275.528h-42.347c-2.506,0-4.537-2.031-4.537-4.537v-24.547
				c-8.522-2.264-16.67-5.64-24.303-10.071l-17.36,17.36c-1.772,1.772-4.644,1.772-6.416,0l-9.767-9.766
				c-1.772-1.771-1.772-4.643,0-6.416c1.769-1.772,4.644-1.772,6.416,0l6.559,6.558l16.666-16.666
				c1.499-1.496,3.831-1.762,5.627-0.631c8.673,5.465,18.134,9.385,28.119,11.652c2.066,0.47,3.533,2.305,3.533,4.425v23.565h33.273
				v-23.565c0-2.119,1.467-3.955,3.533-4.425c9.986-2.267,19.447-6.187,28.119-11.652c1.797-1.131,4.13-0.865,5.627,0.631
				l16.666,16.666l23.528-23.528l-16.666-16.666c-1.499-1.498-1.76-3.834-0.631-5.627c5.465-8.67,9.384-18.131,11.652-28.12
				c0.47-2.066,2.305-3.533,4.425-3.533h23.565v-33.272h-23.565c-2.119,0-3.955-1.467-4.425-3.533
				c-2.267-9.989-6.187-19.45-11.652-28.12c-1.13-1.793-0.868-4.13,0.631-5.627l16.666-16.666l-23.528-23.528l-16.666,16.666
				c-1.498,1.499-3.83,1.763-5.627,0.631c-8.673-5.465-18.134-9.384-28.119-11.652c-2.066-0.47-3.533-2.306-3.533-4.425V33.546
				h-33.273v23.565c0,2.119-1.467,3.955-3.533,4.425c-9.986,2.267-19.447,6.187-28.119,11.652c-1.796,1.133-4.128,0.868-5.627-0.631
				L79.418,55.891L55.891,79.418l16.666,16.666c1.499,1.498,1.761,3.834,0.631,5.627c-5.465,8.67-9.384,18.131-11.652,28.12
				c-0.47,2.066-2.306,3.533-4.425,3.533H33.546v33.272h23.565c2.119,0,3.955,1.467,4.425,3.533
				c2.267,9.989,6.187,19.45,11.652,28.12c1.13,1.793,0.868,4.13-0.631,5.627l-16.666,16.666l1.731,1.731
				c1.771,1.772,1.771,4.645-0.001,6.417c-1.772,1.769-4.645,1.771-6.417-0.001l-4.937-4.939c-1.771-1.772-1.771-4.645,0.001-6.416
				l17.36-17.36c-4.431-7.631-7.807-15.78-10.071-24.303H29.009c-2.506,0-4.537-2.031-4.537-4.537v-42.347
				c0-2.506,2.031-4.537,4.537-4.537h24.547c2.264-8.523,5.64-16.672,10.071-24.303l-17.36-17.36c-1.772-1.771-1.772-4.645,0-6.416
				L76.21,46.267c1.772-1.772,4.644-1.772,6.416,0l17.36,17.36c7.633-4.431,15.781-7.807,24.303-10.071V29.009
				c0-2.506,2.031-4.537,4.537-4.537h42.347c2.506,0,4.537,2.031,4.537,4.537v24.547c8.522,2.264,16.67,5.64,24.303,10.071
				l17.36-17.36c1.772-1.772,4.643-1.772,6.416,0l29.943,29.944c1.772,1.771,1.772,4.645,0,6.416l-17.36,17.36
				c4.431,7.631,7.807,15.78,10.071,24.303h24.547c2.506,0,4.537,2.031,4.537,4.537v42.347c0,2.506-2.031,4.537-4.537,4.537h-24.547
				c-2.264,8.523-5.64,16.672-10.071,24.303l17.36,17.36c1.772,1.771,1.772,4.645,0,6.416l-29.943,29.943
				c-1.772,1.772-4.643,1.772-6.416,0l-17.36-17.36c-7.633,4.431-15.781,7.807-24.303,10.071v24.547
				C175.711,273.498,173.68,275.528,171.173,275.528z"/>
		</g>
		<g>
			<path fill="#161616" d="M149.848,217.14c-0.517,0-1.027-0.089-1.509-0.258c-46.599-8.656-59.869-91.949-60.414-95.508
				c-0.219-1.428,0.256-2.874,1.278-3.895l22.706-22.706c0.851-0.851,2.004-1.329,3.208-1.329h69.768
				c1.204,0,2.357,0.479,3.208,1.329l22.706,22.706c1.022,1.022,1.496,2.471,1.276,3.899c-0.059,0.382-1.483,9.501-4.949,22.07
				c-0.666,2.416-3.167,3.836-5.58,3.167c-2.415-0.666-3.833-3.164-3.167-5.58c2.337-8.478,3.722-15.416,4.341-18.803
				l-19.714-19.714h-66.011l-19.713,19.713c2.394,13.046,16.255,78.953,52.718,85.731c20.782-3.873,34.116-27.44,41.663-46.629
				c0.917-2.332,3.549-3.478,5.883-2.562c2.332,0.917,3.48,3.552,2.562,5.883c-12.2,31.017-28.537,48.593-48.563,52.251
				c-0.489,0.161-1.021,0.216-1.514,0.233C149.97,217.139,149.908,217.14,149.848,217.14z"/>
		</g>
		<g>
			<path fill="#161616" d="M167.289,182.674h-34.577c-2.506,0-4.537-2.031-4.537-4.537v-34.578c0-2.506,2.031-4.537,4.537-4.537
				h34.577c2.506,0,4.537,2.031,4.537,4.537v34.578C171.826,180.644,169.795,182.674,167.289,182.674z M137.25,173.6h25.502v-25.504
				H137.25V173.6z"/>
		</g>
		<g>
			<g>
				<path fill="#161616" d="M164.312,143.559h-9.074v-9.144c0-2.887-2.348-5.236-5.236-5.236c-2.887,0-5.237,2.348-5.237,5.236
					v9.144h-9.074v-9.144c0-7.891,6.42-14.31,14.311-14.31c7.891,0,14.31,6.419,14.31,14.31V143.559z"/>
			</g>
		</g>
		<g>
			<path fill="#161616" d="M154.459,160.909c0,2.464-1.995,4.459-4.459,4.459c-2.463,0-4.459-1.995-4.459-4.459
				c0-2.464,1.995-4.459,4.459-4.459C152.464,156.45,154.459,158.445,154.459,160.909z"/>
		</g>
	</g>
</g>
</svg>
